<svg aria-hidden="true" style="position: absolute; width: 0; height: 0; overflow: hidden;" version="1.1" xmlns="http://www.w3.org/2000/svg" xmlns:xlink="http://www.w3.org/1999/xlink">
<defs>
<symbol id="icon-atom" viewBox="0 0 28 32">
<path d="M16.181 25.769c-1.044 2.113-1.938 2.231-2.181 2.231s-1.131-0.119-2.181-2.231c0.713-0.244 1.444-0.525 2.181-0.844 0.738 0.319 1.463 0.606 2.181 0.844zM15.8 19.5c-0.606 0.363-1.206 0.7-1.8 1-0.588-0.3-1.188-0.637-1.8-1-0.756-0.456-1.475-0.925-2.137-1.4-0.044-0.675-0.063-1.375-0.063-2.1s0.025-1.419 0.063-2.1c0.662-0.475 1.381-0.944 2.137-1.4 0.606-0.363 1.206-0.7 1.8-1 0.588 0.3 1.188 0.637 1.8 1 0.756 0.456 1.475 0.925 2.137 1.4 0.044 0.675 0.063 1.375 0.063 2.1s-0.025 1.419-0.063 2.1c-0.663 0.475-1.381 0.944-2.137 1.4zM27.35 24c1.294-2.319 0.587-5.175-1.475-8 2.063-2.825 2.769-5.681 1.475-8-1.262-2.269-3.906-3.081-7.2-2.7-1.375-3.256-3.475-5.3-6.15-5.3s-4.775 2.044-6.15 5.3c-3.294-0.381-5.938 0.425-7.2 2.7-1.294 2.319-0.588 5.175 1.475 8-2.063 2.825-2.769 5.681-1.475 8 1.262 2.269 3.906 3.081 7.2 2.7 1.375 3.256 3.481 5.3 6.15 5.3s4.775-2.044 6.15-5.3c3.294 0.381 5.938-0.425 7.2-2.7zM23.113 19.050c1.181 1.887 0.887 2.75 0.744 3.006-0.1 0.181-0.525 0.813-2.512 0.731 0.175-0.819 0.313-1.681 0.419-2.575 0.475-0.381 0.925-0.769 1.35-1.163zM23.856 9.944c0.144 0.262 0.438 1.119-0.744 3.006-0.425-0.394-0.875-0.781-1.35-1.162-0.106-0.894-0.244-1.75-0.419-2.575 1.988-0.088 2.413 0.544 2.512 0.731zM14 4c0.244 0 1.131 0.119 2.181 2.231-0.713 0.244-1.444 0.525-2.181 0.844-0.738-0.319-1.463-0.606-2.181-0.844 1.050-2.112 1.938-2.231 2.181-2.231zM6.656 9.219c-0.175 0.819-0.313 1.681-0.419 2.575-0.475 0.381-0.925 0.769-1.35 1.162-1.175-1.894-0.888-2.75-0.744-3.013 0.1-0.181 0.525-0.813 2.513-0.731zM4.144 22.056c-0.144-0.262-0.438-1.119 0.744-3.006 0.425 0.394 0.875 0.781 1.35 1.163 0.106 0.887 0.244 1.75 0.419 2.575-1.987 0.087-2.413-0.544-2.513-0.731zM14 18c1.106 0 2-0.894 2-2s-0.894-2-2-2-2 0.894-2 2 0.894 2 2 2z"></path>
</symbol>
<symbol id="icon-book" viewBox="0 0 28 32">
<path d="M6 0c-3.313 0-6 2.688-6 6v20c0 3.313 2.688 6 6 6h20c1.106 0 2-0.894 2-2s-0.894-2-2-2v-4c1.106 0 2-0.894 2-2v-20c0-1.106-0.894-2-2-2h-20zM6 24h16v4h-16c-1.106 0-2-0.894-2-2s0.894-2 2-2zM8 9c0-0.55 0.45-1 1-1h12c0.55 0 1 0.45 1 1s-0.45 1-1 1h-12c-0.55 0-1-0.45-1-1zM9 12h12c0.55 0 1 0.45 1 1s-0.45 1-1 1h-12c-0.55 0-1-0.45-1-1s0.45-1 1-1z"></path>
</symbol>
<symbol id="icon-earth" viewBox="0 0 32 32">
<path d="M3.606 12.063l0.588 1.025c0.519 0.906 1.369 1.575 2.375 1.863l3.619 1.031c1.075 0.306 1.813 1.287 1.813 2.406v2.494c0 0.688 0.387 1.313 1 1.619s1 0.931 1 1.619v2.438c0 0.975 0.931 1.681 1.869 1.413 1.006-0.288 1.787-1.094 2.044-2.113l0.175-0.7c0.262-1.056 0.95-1.962 1.894-2.5l0.506-0.288c0.938-0.531 1.512-1.531 1.512-2.606v-0.519c0-0.794-0.319-1.556-0.881-2.119l-0.244-0.244c-0.563-0.563-1.325-0.881-2.119-0.881h-2.694c-0.694 0-1.381-0.181-1.988-0.525l-2.156-1.231c-0.269-0.156-0.475-0.406-0.575-0.7-0.2-0.6 0.069-1.25 0.637-1.531l0.369-0.188c0.412-0.206 0.894-0.244 1.331-0.094l1.45 0.481c0.512 0.169 1.075-0.025 1.369-0.469 0.294-0.438 0.262-1.019-0.075-1.425l-0.85-1.019c-0.625-0.75-0.619-1.844 0.019-2.581l0.981-1.144c0.55-0.644 0.637-1.563 0.219-2.294l-0.15-0.263c-0.219-0.013-0.431-0.019-0.65-0.019-5.8 0-10.719 3.806-12.387 9.063zM29 16c0-2.3-0.6-4.463-1.65-6.344l-1.6 0.644c-0.981 0.394-1.488 1.488-1.156 2.488l1.056 3.169c0.219 0.65 0.75 1.144 1.413 1.306l1.819 0.456c0.075-0.563 0.113-1.137 0.113-1.719zM32 16c0 8.837-7.163 16-16 16s-16-7.163-16-16 7.162-16 16-16 16 7.162 16 16z"></path>
</symbol>
<symbol id="icon-football" viewBox="0 0 32 32">
<path d="M15.469 1.587c-0.844 0.206-1.65 0.45-2.412 0.731-4.125 1.531-7.013 4.156-8.931 7.281-1.144 1.863-1.931 3.894-2.45 5.963l14.856 14.85c0.844-0.206 1.65-0.45 2.413-0.731 4.125-1.531 7.012-4.156 8.931-7.281 1.144-1.863 1.931-3.894 2.444-5.956l-14.85-14.856zM30.95 12.831c0.381-3.55 0.087-7.013-0.481-9.775-0.169-0.806-0.813-1.431-1.631-1.569-3.637-0.606-6.869-0.75-9.725-0.494l11.837 11.838zM12.881 31l-11.831-11.831c-0.381 3.55-0.088 7.012 0.481 9.775 0.169 0.806 0.813 1.431 1.631 1.569 3.638 0.606 6.869 0.75 9.725 0.494zM16.294 10.294c0.387-0.387 1.025-0.387 1.413 0l4 4c0.387 0.387 0.387 1.025 0 1.412s-1.025 0.388-1.413 0l-4-4c-0.387-0.387-0.387-1.025 0-1.412zM13.294 13.294c0.387-0.387 1.025-0.387 1.412 0l4 4c0.387 0.387 0.387 1.025 0 1.413s-1.025 0.387-1.413 0l-4-4c-0.387-0.387-0.387-1.025 0-1.412zM10.294 16.294c0.387-0.387 1.025-0.387 1.412 0l4 4c0.388 0.387 0.388 1.025 0 1.413s-1.025 0.387-1.412 0l-4-4c-0.387-0.387-0.387-1.025 0-1.413z"></path>
</symbol>
<symbol id="icon-landmark" viewBox="0 0 32 32">
<path d="M15.006 0.263c0.613-0.35 1.369-0.35 1.987 0l10.738 6.131 0.269 0.106v0.056l2.994 1.713c0.788 0.45 1.175 1.375 0.944 2.25s-1.025 1.488-1.931 1.488h-28.006c-0.906 0-1.7-0.613-1.931-1.488s0.156-1.8 0.944-2.25l2.987-1.713v-0.056l0.275-0.1 10.731-6.138zM4 14h4v12h2.5v-12h4v12h3v-12h4v12h2.5v-12h4v12.269c0.038 0.019 0.075 0.044 0.113 0.069l3 2c0.731 0.488 1.062 1.4 0.806 2.244s-1.038 1.419-1.919 1.419h-28c-0.881 0-1.656-0.575-1.913-1.419s0.069-1.756 0.806-2.244l3-2c0.038-0.025 0.075-0.044 0.112-0.069v-12.269z"></path>
</symbol>
<symbol id="icon-lightbulb" viewBox="0 0 24 32">
<path d="M17 24c0.6-1.994 1.844-3.694 3.075-5.387v0c0.325-0.444 0.65-0.887 0.962-1.337 1.238-1.781 1.962-3.938 1.962-6.269 0-6.081-4.925-11.006-11-11.006s-11 4.925-11 11c0 2.331 0.725 4.494 1.962 6.269 0.313 0.45 0.637 0.894 0.962 1.337v0c1.237 1.694 2.481 3.4 3.075 5.387h10zM12 32c2.762 0 5-2.238 5-5v-1h-10v1c0 2.762 2.238 5 5 5zM7 11c0 0.55-0.45 1-1 1s-1-0.45-1-1c0-3.869 3.131-7 7-7 0.55 0 1 0.45 1 1s-0.45 1-1 1c-2.762 0-5 2.238-5 5z"></path>
</symbol>
<symbol id="icon-music" viewBox="0 0 32 32">
<path d="M31.194 0.394c0.506 0.375 0.806 0.975 0.806 1.606v21c0 2.762-2.688 5-6 5s-6-2.238-6-5 2.688-5 6-5c0.7 0 1.375 0.1 2 0.288v-9.1l-16 4.8v13.012c0 2.762-2.688 5-6 5s-6-2.238-6-5 2.688-5 6-5c0.7 0 1.375 0.1 2 0.288v-14.287c0-0.881 0.581-1.662 1.425-1.919l20-6c0.606-0.181 1.262-0.069 1.769 0.313z"></path>
</symbol>
<symbol id="icon-paw" viewBox="0 0 32 32">
<path d="M14.156 5.806c0.894 2.681-0.019 5.388-2.037 6.050s-4.381-0.975-5.275-3.656 0.019-5.388 2.037-6.050 4.381 0.975 5.275 3.656zM6.275 12.412c1.181 2.025 0.894 4.381-0.638 5.256s-3.731-0.056-4.906-2.081-0.9-4.381 0.631-5.256 3.731 0.056 4.906 2.081zM4.325 25.075c3.275-8.831 9.094-11.075 11.675-11.075s8.4 2.244 11.675 11.075c0.225 0.606 0.325 1.256 0.325 1.906v0.1c0 1.613-1.306 2.919-2.919 2.919-0.719 0-1.431-0.087-2.125-0.262l-5.5-1.375c-0.956-0.238-1.956-0.238-2.912 0l-5.5 1.375c-0.694 0.175-1.406 0.262-2.125 0.262-1.612 0-2.919-1.306-2.919-2.919v-0.1c0-0.65 0.1-1.3 0.325-1.906zM26.363 17.669c-1.531-0.875-1.819-3.231-0.637-5.256s3.375-2.956 4.906-2.081 1.819 3.231 0.637 5.256-3.375 2.956-4.906 2.081zM19.381 11.856c-2.019-0.662-2.931-3.369-2.038-6.050s3.256-4.319 5.275-3.656 2.931 3.369 2.038 6.050-3.256 4.319-5.275 3.656z"></path>
</symbol>
<symbol id="icon-people" viewBox="0 0 40 32">
<path d="M11.5 5.5c0 1.931-1.569 3.5-3.5 3.5s-3.5-1.569-3.5-3.5 1.569-3.5 3.5-3.5 3.5 1.569 3.5 3.5zM4 15.356c-0.625 0.7-1 1.631-1 2.644s0.375 1.944 1 2.644v-5.287zM13.025 12.275c-1.856 1.644-3.025 4.050-3.025 6.725 0 2.144 0.75 4.113 2 5.656v1.344c0 1.106-0.894 2-2 2h-4c-1.106 0-2-0.894-2-2v-1.675c-2.362-1.125-4-3.531-4-6.325 0-3.869 3.131-7 7-7h2c1.5 0 2.887 0.469 4.025 1.269zM28 26v-1.344c1.25-1.544 2-3.512 2-5.656 0-2.675-1.169-5.081-3.025-6.731 1.137-0.8 2.525-1.269 4.025-1.269h2c3.869 0 7 3.131 7 7 0 2.794-1.638 5.2-4 6.325v1.675c0 1.106-0.894 2-2 2h-4c-1.106 0-2-0.894-2-2zM35.5 5.5c0 1.931-1.569 3.5-3.5 3.5s-3.5-1.569-3.5-3.5 1.569-3.5 3.5-3.5 3.5 1.569 3.5 3.5zM36 15.356v5.294c0.625-0.706 1-1.631 1-2.644s-0.375-1.944-1-2.644zM20 10c-2.206 0-4-1.794-4-4s1.794-4 4-4 4 1.794 4 4-1.794 4-4 4zM15 19c0 1.012 0.375 1.938 1 2.644v-5.287c-0.625 0.706-1 1.631-1 2.644zM24 16.356v5.294c0.625-0.706 1-1.631 1-2.644s-0.375-1.944-1-2.644zM28 19c0 2.794-1.637 5.2-4 6.325v2.675c0 1.106-0.894 2-2 2h-4c-1.106 0-2-0.894-2-2v-2.675c-2.363-1.125-4-3.531-4-6.325 0-3.869 3.131-7 7-7h2c3.869 0 7 3.131 7 7z"></path>
</symbol>
<symbol id="icon-rocket" viewBox="0 0 32 32">
<path d="M9.787 24.056l-1.931-1.931c-0.531-0.531-0.719-1.3-0.481-2.012 0.188-0.556 0.438-1.281 0.737-2.113h-6.612c-0.537 0-1.038-0.288-1.306-0.756s-0.263-1.044 0.013-1.506l3.281-5.531c0.812-1.369 2.281-2.206 3.869-2.206h5.144c0.15-0.25 0.3-0.481 0.45-0.706 5.119-7.55 12.744-7.8 17.294-6.963 0.725 0.131 1.288 0.7 1.425 1.425 0.838 4.556 0.581 12.175-6.963 17.294-0.219 0.15-0.456 0.3-0.706 0.45v5.144c0 1.587-0.837 3.063-2.206 3.869l-5.531 3.281c-0.463 0.275-1.037 0.281-1.506 0.012s-0.756-0.762-0.756-1.306v-6.7c-0.881 0.306-1.65 0.556-2.231 0.744-0.7 0.225-1.463 0.031-1.988-0.488zM24 10.5c1.381 0 2.5-1.119 2.5-2.5s-1.119-2.5-2.5-2.5-2.5 1.119-2.5 2.5 1.119 2.5 2.5 2.5z"></path>
</symbol>
<symbol id="icon-tv" viewBox="0 0 40 32">
<path d="M4 4v18h32v-18h-32zM0 4c0-2.206 1.794-4 4-4h32c2.206 0 4 1.794 4 4v18c0 2.206-1.794 4-4 4h-32c-2.206 0-4-1.794-4-4v-18zM8 28h24c1.106 0 2 0.894 2 2s-0.894 2-2 2h-24c-1.106 0-2-0.894-2-2s0.894-2 2-2z"></path>
</symbol>
<symbol id="icon-utensils" viewBox="0 0 28 32">
<path d="M26 0c-1 0-8 2-8 11v7c0 2.206 1.794 4 4 4h2v8c0 1.106 0.894 2 2 2s2-0.894 2-2v-28c0-1.106-0.894-2-2-2zM4 1c0-0.512-0.381-0.938-0.894-0.994s-0.969 0.281-1.081 0.775l-1.894 8.519c-0.087 0.394-0.131 0.794-0.131 1.194 0 2.869 2.194 5.225 5 5.481v14.025c0 1.106 0.894 2 2 2s2-0.894 2-2v-14.025c2.806-0.256 5-2.612 5-5.481 0-0.4-0.044-0.8-0.131-1.194l-1.894-8.519c-0.113-0.5-0.581-0.831-1.088-0.775s-0.887 0.481-0.887 0.994v8.387c0 0.338-0.275 0.613-0.613 0.613-0.319 0-0.581-0.244-0.613-0.563l-0.781-8.525c-0.044-0.519-0.475-0.912-0.994-0.912s-0.95 0.394-0.994 0.912l-0.775 8.525c-0.031 0.319-0.294 0.563-0.612 0.563-0.338 0-0.612-0.275-0.612-0.613v-8.387zM7.019 10.5h-0.037l0.019-0.044 0.019 0.044z"></path>
</symbol>
</defs>
</svg>
